<svg height="4078" width="720" xmlns="http://www.w3.org/2000/svg">
<rect height="4078" fill="#555" width="720"></rect>
<text fill="#7f7" font-family="Courier New" font-size="12" xml:space="preserve">
<tspan x="10" y="26">31 megabytes installed</tspan>
<tspan x="10" y="42"></tspan>
<tspan x="10" y="58">node_modules</tspan>
<tspan x="10" y="74">└─┬ restle@0.6.0 </tspan>
<tspan x="10" y="90">  ├─┬ babel@5.8.38 </tspan>
<tspan x="10" y="106">  │ ├─┬ babel-core@5.8.38 </tspan>
<tspan x="10" y="122">  │ │ ├── babel-plugin-constant-folding@1.0.1 </tspan>
<tspan x="10" y="138">  │ │ ├── babel-plugin-dead-code-elimination@1.0.2 </tspan>
<tspan x="10" y="154">  │ │ ├── babel-plugin-eval@1.0.1 </tspan>
<tspan x="10" y="170">  │ │ ├── babel-plugin-inline-environment-variables@1.0.1 </tspan>
<tspan x="10" y="186">  │ │ ├── babel-plugin-jscript@1.0.4 </tspan>
<tspan x="10" y="202">  │ │ ├── babel-plugin-member-expression-literals@1.0.1 </tspan>
<tspan x="10" y="218">  │ │ ├── babel-plugin-property-literals@1.0.1 </tspan>
<tspan x="10" y="234">  │ │ ├── babel-plugin-proto-to-assign@1.0.4 </tspan>
<tspan x="10" y="250">  │ │ ├── babel-plugin-react-constant-elements@1.0.3 </tspan>
<tspan x="10" y="266">  │ │ ├── babel-plugin-react-display-name@1.0.3 </tspan>
<tspan x="10" y="282">  │ │ ├── babel-plugin-remove-console@1.0.1 </tspan>
<tspan x="10" y="298">  │ │ ├── babel-plugin-remove-debugger@1.0.1 </tspan>
<tspan x="10" y="314">  │ │ ├── babel-plugin-runtime@1.0.7 </tspan>
<tspan x="10" y="330">  │ │ ├─┬ babel-plugin-undeclared-variables-check@1.0.2 </tspan>
<tspan x="10" y="346">  │ │ │ └── leven@1.0.2 </tspan>
<tspan x="10" y="362">  │ │ ├── babel-plugin-undefined-to-void@1.1.6 </tspan>
<tspan x="10" y="378">  │ │ ├── babylon@5.8.38 </tspan>
<tspan x="10" y="394">  │ │ ├─┬ chalk@1.1.3 </tspan>
<tspan x="10" y="410">  │ │ │ ├── ansi-styles@2.2.1 </tspan>
<tspan x="10" y="426">  │ │ │ ├── escape-string-regexp@1.0.5 </tspan>
<tspan x="10" y="442">  │ │ │ ├─┬ has-ansi@2.0.0 </tspan>
<tspan x="10" y="458">  │ │ │ │ └── ansi-regex@2.1.1 </tspan>
<tspan x="10" y="474">  │ │ │ ├── strip-ansi@3.0.1 </tspan>
<tspan x="10" y="490">  │ │ │ └── supports-color@2.0.0 </tspan>
<tspan x="10" y="506">  │ │ ├── core-js@1.2.7 </tspan>
<tspan x="10" y="522">  │ │ ├─┬ debug@2.6.4 </tspan>
<tspan x="10" y="538">  │ │ │ └── ms@0.7.3 </tspan>
<tspan x="10" y="554">  │ │ ├─┬ detect-indent@3.0.1 </tspan>
<tspan x="10" y="570">  │ │ │ ├── get-stdin@4.0.1 </tspan>
<tspan x="10" y="586">  │ │ │ └── minimist@1.2.0 </tspan>
<tspan x="10" y="602">  │ │ ├── esutils@2.0.2 </tspan>
<tspan x="10" y="618">  │ │ ├── globals@6.4.1 </tspan>
<tspan x="10" y="634">  │ │ ├─┬ home-or-tmp@1.0.0 </tspan>
<tspan x="10" y="650">  │ │ │ ├── os-tmpdir@1.0.2 </tspan>
<tspan x="10" y="666">  │ │ │ └── user-home@1.1.1 </tspan>
<tspan x="10" y="682">  │ │ ├─┬ is-integer@1.0.6 </tspan>
<tspan x="10" y="698">  │ │ │ └─┬ is-finite@1.0.2 </tspan>
<tspan x="10" y="714">  │ │ │   └── number-is-nan@1.0.1 </tspan>
<tspan x="10" y="730">  │ │ ├── js-tokens@1.0.1 </tspan>
<tspan x="10" y="746">  │ │ ├── json5@0.4.0 </tspan>
<tspan x="10" y="762">  │ │ ├─┬ minimatch@2.0.10 </tspan>
<tspan x="10" y="778">  │ │ │ └─┬ brace-expansion@1.1.7 </tspan>
<tspan x="10" y="794">  │ │ │   ├── balanced-match@0.4.2 </tspan>
<tspan x="10" y="810">  │ │ │   └── concat-map@0.0.1 </tspan>
<tspan x="10" y="826">  │ │ ├── private@0.1.7 </tspan>
<tspan x="10" y="842">  │ │ ├─┬ regenerator@0.8.40 </tspan>
<tspan x="10" y="858">  │ │ │ ├─┬ commoner@0.10.8 </tspan>
<tspan x="10" y="874">  │ │ │ │ ├─┬ detective@4.5.0 </tspan>
<tspan x="10" y="890">  │ │ │ │ │ ├── acorn@4.0.11 </tspan>
<tspan x="10" y="906">  │ │ │ │ │ └── defined@1.0.0 </tspan>
<tspan x="10" y="922">  │ │ │ │ ├── q@1.5.0 </tspan>
<tspan x="10" y="938">  │ │ │ │ └─┬ recast@0.11.23 </tspan>
<tspan x="10" y="954">  │ │ │ │   ├── ast-types@0.9.6 </tspan>
<tspan x="10" y="970">  │ │ │ │   └── esprima@3.1.3 </tspan>
<tspan x="10" y="986">  │ │ │ ├─┬ defs@1.1.1 </tspan>
<tspan x="10" y="1002">  │ │ │ │ ├─┬ alter@0.2.0 </tspan>
<tspan x="10" y="1018">  │ │ │ │ │ └── stable@0.1.6 </tspan>
<tspan x="10" y="1034">  │ │ │ │ ├── ast-traverse@0.1.1 </tspan>
<tspan x="10" y="1050">  │ │ │ │ ├── breakable@1.0.0 </tspan>
<tspan x="10" y="1066">  │ │ │ │ ├── simple-fmt@0.1.0 </tspan>
<tspan x="10" y="1082">  │ │ │ │ ├── simple-is@0.2.0 </tspan>
<tspan x="10" y="1098">  │ │ │ │ ├── stringmap@0.2.2 </tspan>
<tspan x="10" y="1114">  │ │ │ │ ├── stringset@0.2.1 </tspan>
<tspan x="10" y="1130">  │ │ │ │ ├── tryor@0.1.2 </tspan>
<tspan x="10" y="1146">  │ │ │ │ └─┬ yargs@3.27.0 </tspan>
<tspan x="10" y="1162">  │ │ │ │   ├── camelcase@1.2.1 </tspan>
<tspan x="10" y="1178">  │ │ │ │   ├─┬ cliui@2.1.0 </tspan>
<tspan x="10" y="1194">  │ │ │ │   │ ├─┬ center-align@0.1.3 </tspan>
<tspan x="10" y="1210">  │ │ │ │   │ │ ├─┬ align-text@0.1.4 </tspan>
<tspan x="10" y="1226">  │ │ │ │   │ │ │ └── longest@1.0.1 </tspan>
<tspan x="10" y="1242">  │ │ │ │   │ │ └── lazy-cache@1.0.4 </tspan>
<tspan x="10" y="1258">  │ │ │ │   │ ├── right-align@0.1.3 </tspan>
<tspan x="10" y="1274">  │ │ │ │   │ └── wordwrap@0.0.2 </tspan>
<tspan x="10" y="1290">  │ │ │ │   ├── decamelize@1.2.0 </tspan>
<tspan x="10" y="1306">  │ │ │ │   ├─┬ os-locale@1.4.0 </tspan>
<tspan x="10" y="1322">  │ │ │ │   │ └─┬ lcid@1.0.0 </tspan>
<tspan x="10" y="1338">  │ │ │ │   │   └── invert-kv@1.0.0 </tspan>
<tspan x="10" y="1354">  │ │ │ │   ├── window-size@0.1.4 </tspan>
<tspan x="10" y="1370">  │ │ │ │   └── y18n@3.2.1 </tspan>
<tspan x="10" y="1386">  │ │ │ ├── esprima-fb@15001.1001.0-dev-harmony-fb </tspan>
<tspan x="10" y="1402">  │ │ │ ├─┬ recast@0.10.33 </tspan>
<tspan x="10" y="1418">  │ │ │ │ └── ast-types@0.8.12 </tspan>
<tspan x="10" y="1434">  │ │ │ └── through@2.3.8 </tspan>
<tspan x="10" y="1450">  │ │ ├─┬ regexpu@1.3.0 </tspan>
<tspan x="10" y="1466">  │ │ │ ├── esprima@2.7.3 </tspan>
<tspan x="10" y="1482">  │ │ │ ├── regenerate@1.3.2 </tspan>
<tspan x="10" y="1498">  │ │ │ ├── regjsgen@0.2.0 </tspan>
<tspan x="10" y="1514">  │ │ │ └─┬ regjsparser@0.1.5 </tspan>
<tspan x="10" y="1530">  │ │ │   └── jsesc@0.5.0 </tspan>
<tspan x="10" y="1546">  │ │ ├── repeating@1.1.3 </tspan>
<tspan x="10" y="1562">  │ │ ├─┬ resolve@1.3.3 </tspan>
<tspan x="10" y="1578">  │ │ │ └── path-parse@1.0.5 </tspan>
<tspan x="10" y="1594">  │ │ ├── shebang-regex@1.0.0 </tspan>
<tspan x="10" y="1610">  │ │ ├─┬ source-map-support@0.2.10 </tspan>
<tspan x="10" y="1626">  │ │ │ └─┬ source-map@0.1.32 </tspan>
<tspan x="10" y="1642">  │ │ │   └── amdefine@1.0.1 </tspan>
<tspan x="10" y="1658">  │ │ ├── to-fast-properties@1.0.2 </tspan>
<tspan x="10" y="1674">  │ │ ├── trim-right@1.0.1 </tspan>
<tspan x="10" y="1690">  │ │ └── try-resolve@1.0.1 </tspan>
<tspan x="10" y="1706">  │ ├─┬ chokidar@1.6.1 </tspan>
<tspan x="10" y="1722">  │ │ ├─┬ anymatch@1.3.0 </tspan>
<tspan x="10" y="1738">  │ │ │ ├── arrify@1.0.1 </tspan>
<tspan x="10" y="1754">  │ │ │ └─┬ micromatch@2.3.11 </tspan>
<tspan x="10" y="1770">  │ │ │   ├─┬ arr-diff@2.0.0 </tspan>
<tspan x="10" y="1786">  │ │ │   │ └── arr-flatten@1.0.3 </tspan>
<tspan x="10" y="1802">  │ │ │   ├── array-unique@0.2.1 </tspan>
<tspan x="10" y="1818">  │ │ │   ├─┬ braces@1.8.5 </tspan>
<tspan x="10" y="1834">  │ │ │   │ ├─┬ expand-range@1.8.2 </tspan>
<tspan x="10" y="1850">  │ │ │   │ │ └─┬ fill-range@2.2.3 </tspan>
<tspan x="10" y="1866">  │ │ │   │ │   ├── is-number@2.1.0 </tspan>
<tspan x="10" y="1882">  │ │ │   │ │   ├── isobject@2.1.0 </tspan>
<tspan x="10" y="1898">  │ │ │   │ │   ├── randomatic@1.1.6 </tspan>
<tspan x="10" y="1914">  │ │ │   │ │   └── repeat-string@1.6.1 </tspan>
<tspan x="10" y="1930">  │ │ │   │ ├── preserve@0.2.0 </tspan>
<tspan x="10" y="1946">  │ │ │   │ └── repeat-element@1.1.2 </tspan>
<tspan x="10" y="1962">  │ │ │   ├─┬ expand-brackets@0.1.5 </tspan>
<tspan x="10" y="1978">  │ │ │   │ └── is-posix-bracket@0.1.1 </tspan>
<tspan x="10" y="1994">  │ │ │   ├── extglob@0.3.2 </tspan>
<tspan x="10" y="2010">  │ │ │   ├── filename-regex@2.0.0 </tspan>
<tspan x="10" y="2026">  │ │ │   ├─┬ kind-of@3.1.0 </tspan>
<tspan x="10" y="2042">  │ │ │   │ └── is-buffer@1.1.5 </tspan>
<tspan x="10" y="2058">  │ │ │   ├─┬ normalize-path@2.1.1 </tspan>
<tspan x="10" y="2074">  │ │ │   │ └── remove-trailing-separator@1.0.1 </tspan>
<tspan x="10" y="2090">  │ │ │   ├─┬ object.omit@2.0.1 </tspan>
<tspan x="10" y="2106">  │ │ │   │ ├─┬ for-own@0.1.5 </tspan>
<tspan x="10" y="2122">  │ │ │   │ │ └── for-in@1.0.2 </tspan>
<tspan x="10" y="2138">  │ │ │   │ └── is-extendable@0.1.1 </tspan>
<tspan x="10" y="2154">  │ │ │   ├─┬ parse-glob@3.0.4 </tspan>
<tspan x="10" y="2170">  │ │ │   │ ├── glob-base@0.3.0 </tspan>
<tspan x="10" y="2186">  │ │ │   │ └── is-dotfile@1.0.2 </tspan>
<tspan x="10" y="2202">  │ │ │   └─┬ regex-cache@0.4.3 </tspan>
<tspan x="10" y="2218">  │ │ │     ├── is-equal-shallow@0.1.3 </tspan>
<tspan x="10" y="2234">  │ │ │     └── is-primitive@2.0.0 </tspan>
<tspan x="10" y="2250">  │ │ ├── async-each@1.0.1 </tspan>
<tspan x="10" y="2266">  │ │ ├── glob-parent@2.0.0 </tspan>
<tspan x="10" y="2282">  │ │ ├── inherits@2.0.3 </tspan>
<tspan x="10" y="2298">  │ │ ├─┬ is-binary-path@1.0.1 </tspan>
<tspan x="10" y="2314">  │ │ │ └── binary-extensions@1.8.0 </tspan>
<tspan x="10" y="2330">  │ │ ├─┬ is-glob@2.0.1 </tspan>
<tspan x="10" y="2346">  │ │ │ └── is-extglob@1.0.0 </tspan>
<tspan x="10" y="2362">  │ │ └─┬ readdirp@2.1.0 </tspan>
<tspan x="10" y="2378">  │ │   ├── minimatch@3.0.3 </tspan>
<tspan x="10" y="2394">  │ │   ├─┬ readable-stream@2.2.9 </tspan>
<tspan x="10" y="2410">  │ │   │ ├── buffer-shims@1.0.0 </tspan>
<tspan x="10" y="2426">  │ │   │ ├── core-util-is@1.0.2 </tspan>
<tspan x="10" y="2442">  │ │   │ ├── isarray@1.0.0 </tspan>
<tspan x="10" y="2458">  │ │   │ ├── process-nextick-args@1.0.7 </tspan>
<tspan x="10" y="2474">  │ │   │ ├── string_decoder@1.0.0 </tspan>
<tspan x="10" y="2490">  │ │   │ └── util-deprecate@1.0.2 </tspan>
<tspan x="10" y="2506">  │ │   └── set-immediate-shim@1.0.1 </tspan>
<tspan x="10" y="2522">  │ ├── convert-source-map@1.5.0 </tspan>
<tspan x="10" y="2538">  │ ├── fs-readdir-recursive@0.1.2 </tspan>
<tspan x="10" y="2554">  │ ├─┬ glob@5.0.15 </tspan>
<tspan x="10" y="2570">  │ │ ├─┬ inflight@1.0.6 </tspan>
<tspan x="10" y="2586">  │ │ │ └── wrappy@1.0.2 </tspan>
<tspan x="10" y="2602">  │ │ └── once@1.4.0 </tspan>
<tspan x="10" y="2618">  │ ├─┬ output-file-sync@1.1.2 </tspan>
<tspan x="10" y="2634">  │ │ ├── graceful-fs@4.1.11 </tspan>
<tspan x="10" y="2650">  │ │ └─┬ mkdirp@0.5.1 </tspan>
<tspan x="10" y="2666">  │ │   └── minimist@0.0.8 </tspan>
<tspan x="10" y="2682">  │ ├── path-exists@1.0.0 </tspan>
<tspan x="10" y="2698">  │ ├── path-is-absolute@1.0.1 </tspan>
<tspan x="10" y="2714">  │ ├── slash@1.0.0 </tspan>
<tspan x="10" y="2730">  │ └── source-map@0.5.6 </tspan>
<tspan x="10" y="2746">  ├── bluebird@2.11.0 </tspan>
<tspan x="10" y="2762">  ├─┬ body-parser@1.17.1 </tspan>
<tspan x="10" y="2778">  │ ├── bytes@2.4.0 </tspan>
<tspan x="10" y="2794">  │ ├── content-type@1.0.2 </tspan>
<tspan x="10" y="2810">  │ ├─┬ debug@2.6.1 </tspan>
<tspan x="10" y="2826">  │ │ └── ms@0.7.2 </tspan>
<tspan x="10" y="2842">  │ ├── depd@1.1.0 </tspan>
<tspan x="10" y="2858">  │ ├── http-errors@1.6.1 </tspan>
<tspan x="10" y="2874">  │ ├── iconv-lite@0.4.15 </tspan>
<tspan x="10" y="2890">  │ ├─┬ on-finished@2.3.0 </tspan>
<tspan x="10" y="2906">  │ │ └── ee-first@1.1.1 </tspan>
<tspan x="10" y="2922">  │ ├── qs@6.4.0 </tspan>
<tspan x="10" y="2938">  │ ├─┬ raw-body@2.2.0 </tspan>
<tspan x="10" y="2954">  │ │ └── unpipe@1.0.0 </tspan>
<tspan x="10" y="2970">  │ └─┬ type-is@1.6.15 </tspan>
<tspan x="10" y="2986">  │   ├── media-typer@0.3.0 </tspan>
<tspan x="10" y="3002">  │   └─┬ mime-types@2.1.15 </tspan>
<tspan x="10" y="3018">  │     └── mime-db@1.27.0 </tspan>
<tspan x="10" y="3034">  ├─┬ commander@2.9.0 </tspan>
<tspan x="10" y="3050">  │ └── graceful-readlink@1.0.1 </tspan>
<tspan x="10" y="3066">  ├─┬ cors@2.8.3 </tspan>
<tspan x="10" y="3082">  │ ├── object-assign@4.1.1 </tspan>
<tspan x="10" y="3098">  │ └── vary@1.1.1 </tspan>
<tspan x="10" y="3114">  ├── error-class@2.0.1 </tspan>
<tspan x="10" y="3130">  ├─┬ express@4.15.2 </tspan>
<tspan x="10" y="3146">  │ ├─┬ accepts@1.3.3 </tspan>
<tspan x="10" y="3162">  │ │ └── negotiator@0.6.1 </tspan>
<tspan x="10" y="3178">  │ ├── array-flatten@1.1.1 </tspan>
<tspan x="10" y="3194">  │ ├── content-disposition@0.5.2 </tspan>
<tspan x="10" y="3210">  │ ├── cookie@0.3.1 </tspan>
<tspan x="10" y="3226">  │ ├── cookie-signature@1.0.6 </tspan>
<tspan x="10" y="3242">  │ ├─┬ debug@2.6.1 </tspan>
<tspan x="10" y="3258">  │ │ └── ms@0.7.2 </tspan>
<tspan x="10" y="3274">  │ ├── encodeurl@1.0.1 </tspan>
<tspan x="10" y="3290">  │ ├── escape-html@1.0.3 </tspan>
<tspan x="10" y="3306">  │ ├── etag@1.8.0 </tspan>
<tspan x="10" y="3322">  │ ├─┬ finalhandler@1.0.1 </tspan>
<tspan x="10" y="3338">  │ │ └─┬ debug@2.6.3 </tspan>
<tspan x="10" y="3354">  │ │   └── ms@0.7.2 </tspan>
<tspan x="10" y="3370">  │ ├── fresh@0.5.0 </tspan>
<tspan x="10" y="3386">  │ ├── merge-descriptors@1.0.1 </tspan>
<tspan x="10" y="3402">  │ ├── methods@1.1.2 </tspan>
<tspan x="10" y="3418">  │ ├── parseurl@1.3.1 </tspan>
<tspan x="10" y="3434">  │ ├── path-to-regexp@0.1.7 </tspan>
<tspan x="10" y="3450">  │ ├─┬ proxy-addr@1.1.4 </tspan>
<tspan x="10" y="3466">  │ │ ├── forwarded@0.1.0 </tspan>
<tspan x="10" y="3482">  │ │ └── ipaddr.js@1.3.0 </tspan>
<tspan x="10" y="3498">  │ ├── range-parser@1.2.0 </tspan>
<tspan x="10" y="3514">  │ ├─┬ send@0.15.1 </tspan>
<tspan x="10" y="3530">  │ │ ├── debug@2.6.1 </tspan>
<tspan x="10" y="3546">  │ │ ├── destroy@1.0.4 </tspan>
<tspan x="10" y="3562">  │ │ ├── mime@1.3.4 </tspan>
<tspan x="10" y="3578">  │ │ └── ms@0.7.2 </tspan>
<tspan x="10" y="3594">  │ ├── serve-static@1.12.1 </tspan>
<tspan x="10" y="3610">  │ ├── setprototypeof@1.0.3 </tspan>
<tspan x="10" y="3626">  │ ├── statuses@1.3.1 </tspan>
<tspan x="10" y="3642">  │ └── utils-merge@1.0.0 </tspan>
<tspan x="10" y="3658">  ├── i@0.3.5 </tspan>
<tspan x="10" y="3674">  ├── lodash@3.10.1 </tspan>
<tspan x="10" y="3690">  ├─┬ prompt@0.2.14 </tspan>
<tspan x="10" y="3706">  │ ├── pkginfo@0.4.0 </tspan>
<tspan x="10" y="3722">  │ ├─┬ read@1.0.7 </tspan>
<tspan x="10" y="3738">  │ │ └── mute-stream@0.0.7 </tspan>
<tspan x="10" y="3754">  │ ├── revalidator@0.1.8 </tspan>
<tspan x="10" y="3770">  │ ├─┬ utile@0.2.1 </tspan>
<tspan x="10" y="3786">  │ │ ├── async@0.2.10 </tspan>
<tspan x="10" y="3802">  │ │ ├── deep-equal@1.0.1 </tspan>
<tspan x="10" y="3818">  │ │ ├── ncp@0.4.2 </tspan>
<tspan x="10" y="3834">  │ │ └─┬ rimraf@2.6.1 </tspan>
<tspan x="10" y="3850">  │ │   └─┬ glob@7.1.1 </tspan>
<tspan x="10" y="3866">  │ │     ├── fs.realpath@1.0.0 </tspan>
<tspan x="10" y="3882">  │ │     └── minimatch@3.0.3 </tspan>
<tspan x="10" y="3898">  │ └─┬ winston@0.8.3 </tspan>
<tspan x="10" y="3914">  │   ├── colors@0.6.2 </tspan>
<tspan x="10" y="3930">  │   ├── cycle@1.0.3 </tspan>
<tspan x="10" y="3946">  │   ├── eyes@0.1.8 </tspan>
<tspan x="10" y="3962">  │   ├── isstream@0.1.2 </tspan>
<tspan x="10" y="3978">  │   ├── pkginfo@0.3.1 </tspan>
<tspan x="10" y="3994">  │   └── stack-trace@0.0.9 </tspan>
<tspan x="10" y="4010">  ├── restle-error@0.0.5 </tspan>
<tspan x="10" y="4026">  ├─┬ restle-memory@0.1.2 </tspan>
<tspan x="10" y="4042">  │ └── bluebird@3.5.0 </tspan>
<tspan x="10" y="4058">  └── string-template@0.2.1</tspan>
</text>
</svg>
